<svg xmlns="http://www.w3.org/2000/svg" viewBox="0 0 120.42 239.63"><defs>

	<style>
		.beerText{font-size:14px;font-family:OratorStd, Orator Std;letter-spacing:0.05em; color:red;}

		

	</style></defs><title>Asset 2</title><g id="Layer_2" data-name="Layer 2"><g id="lOGO_White_BG"><text class="beerText" transform="translate(46.31 235.6)">BEER</text><path id="kleenex" d="M120.1,203.36s1.16-2.7-.92-3.4a2.44,2.44,0,0,0-2.74,1,77.41,77.41,0,0,1-7.47,8.89l1.17-8.2a2,2,0,0,0-1.72-2.29,3.71,3.71,0,0,0-3.62,1.19c-3.92,4.41-6.44,11.69-12.81,12.23,0,0,7-5.86,8.2-11.72,0,0,1.17-5.85-4.1-5.85s-10.55,6.44-10,16.39c0,0-3.44,1-3.57-3.81a10.45,10.45,0,0,1,.25-2.43,39.41,39.41,0,0,1,2.73-7.81c1.17-2.34-.58-5.27-4.1-3.52s-6.26,7.81-6.43,8.19l1.63-7.1a2.41,2.41,0,0,0-.14-1.59,1.58,1.58,0,0,0-1.71-.87,3,3,0,0,0-2.52,2.12C71,198.8,66.78,210.68,61,209.22a22.06,22.06,0,0,0,6.23-11.74,6.73,6.73,0,0,0-.86-4.69,4.75,4.75,0,0,0-4.2-2.31c-5.86-.59-9.37,10.54-7,18.16,0,0-3.51,2.34-6.44.58,0,0,4.68-7.61,2.93-14.05-1.27-3.49-3.74-4.06-5.74-3.85A6.53,6.53,0,0,0,41,194.56c-1.7,2.83-3.31,8.22,1.25,15.83,0,0-4.09,2.35-6.44-.58,0,0,3.42-13.17-.88-21.7A9.76,9.76,0,0,0,31,183.93c-2.14-1.22-5.21-1.71-7,3.62-2.93,8.79,2.93,22.26,5.86,22.84,0,0-4.1,5.27-14.06-3.51,0,0,0-10,5.86-15.23,0,0,2.93-2.34-1.17-4.1s-10,8.2-10,18.16c0,0-4.1-11.13-5.27-12.3s-4.74-1.6-5.26,1.41a3.75,3.75,0,0,0,.39,2.32c1.64,3.28,7.93,16,12.48,25.55,0,0,2.93,4.69,5.86-1.17,0,0,.58-1.17-1.17-2.93s-4.1-7-4.1-7,12.88,11.13,19.91,2.35c0,0,6.44,5.27,12.3-1.17a9.47,9.47,0,0,0,11.71-1.18s6.44,6.44,12.88-4.67c-.1.32-2.27,7,.59,7a2.65,2.65,0,0,0,2.74-1.9,22.29,22.29,0,0,1,1.29-3.2c1.61-3.15,4.49-8.67,5.34-9.53-.15.42-3.45,10-.58,13.46s8.2,1.75,8.2,1.75,6.44,8.2,15.81-5.85c0,0,.58-1.76.58,5.27l-8.19,5.27s-2.93,1.75-1.18,3.51c2.93,2.34,10-4.1,10-4.1s2.83,10.77,12.4,3.32a1.6,1.6,0,0,0,.61-1.53c-.14-.66-1-1.67-3-.62-3.52,1.76-5.27.59-5.86-3.51a3.62,3.62,0,0,1,1.17-2.34A59.39,59.39,0,0,0,120.1,203.36ZM32.54,206c-2.34-1.76-5.27-12.88-4.68-16.4s2.34-1.17,2.34-1.17C33.13,193.7,32.54,206,32.54,206Zm12.3.59s-1.17-7.62,0-10,2.34-.59,2.34-.59C48.35,200.73,44.84,206.59,44.84,206.59Zm14.06-1.76s-1.18-5.86,2.34-10C64.17,193.12,61.82,203.07,58.9,204.83Zm31.62,3.51s0-5.85,4.1-9.37C97.55,197.8,93.45,207.17,90.52,208.34Z"/><rect x="37.98" y="165.78" width="50.97" height="8.75" rx="4.38"/><rect x="39.53" y="153.94" width="47.88" height="8.75" rx="4.38"/><rect x="41.07" y="142.1" width="44.79" height="8.75" rx="4.38"/><rect x="41.07" y="130.26" width="44.79" height="8.75" rx="4.38"/><rect x="41.07" y="118.41" width="44.79" height="8.75" rx="4.38"/><rect x="41.07" y="106.57" width="44.79" height="8.75" rx="4.38"/><rect x="41.07" y="94.73" width="44.79" height="8.75" rx="4.38"/><rect x="40.04" y="82.89" width="46.85" height="8.75" rx="4.38"/><rect x="43.65" y="71.05" width="39.64" height="8.75" rx="4.38"/><rect x="48.28" y="59.21" width="30.38" height="8.75" rx="4.38"/><rect x="49.31" y="47.37" width="28.32" height="8.75" rx="4.38"/><rect x="50.34" y="35.52" width="26.26" height="8.75" rx="4.38"/><rect x="51.88" y="23.68" width="23.17" height="8.75" rx="4.38"/><rect x="53.94" y="11.84" width="19.05" height="8.75" rx="4.38"/><rect x="52.4" width="22.14" height="8.75" rx="4.38"/></g></g></svg>